<?xml version="1.0" encoding="UTF-8"?>
<svg viewBox="0 0 730.16248 642.96307" xmlns="http://www.w3.org/2000/svg">
 <defs>
  <radialGradient id="b" cx="516.55" cy="2032.6" r="409.11" gradientTransform="matrix(.95008 -.86025 1.3379 -.01911 -3137 1032)" gradientUnits="userSpaceOnUse">
   <stop stop-color="#f00" offset="0"/>
   <stop stop-color="#ff0" offset=".5"/>
   <stop stop-color="#f00" offset=".75"/>
   <stop stop-color="#ff0" offset=".9375"/>
   <stop stop-color="#ff8c00" stop-opacity=".49804" offset=".96875"/>
   <stop stop-color="#ff1900" stop-opacity="0" offset="1"/>
  </radialGradient>
  <radialGradient id="a" cx="229.15" cy="328.48" r="173.36" gradientTransform="matrix(1 0 0 1.0824 0 -34.099)" gradientUnits="userSpaceOnUse">
   <stop stop-color="#fff" offset="0"/>
   <stop stop-opacity="0" offset="1"/>
  </radialGradient>
 </defs>
 <g transform="translate(198.28 -175.21)">
  <path d="m169.37 256.51c-53.487 31.189-63.151 47.177-73.402 57.12-5.1254 4.971-21.759 35.574-28.941 41.42s-7.1855-1.8101 3.1786-26.69c-31.27 25.815-27.573 49.865-49.95 65.649-0.66045-19.267-19.378 1.4645 5.9097-40.209-24.019 10.72-49.005 67.116-63.024 68.805-8.8427-2.2093 15.032-30.751 11.961-38.059-7.0549 9.7498-35.356 19.268-50.604 37.739s-17.45 45.889-34.254 65.642-63.692 74.15-63.692 74.15l206.73 63.167 103.73 99.426s63.279-45.144 86.322-61.386 59.953-24.149 81.608-39.014 28.068-36.68 39.73-43.837c-10.683-0.43155-44.067 22.738-49.135 17.119-0.95318-10.113 70.169-40.538 79.213-59.685-50.977 27.219-27.058 9.4258-53.496 13.445 16.333-19.184 50.012-22.199 77.964-49.88-31.534 12.968-41.964 14.728-35.659 8.3893s44.181-24.987 49.772-29.697c11.182-9.4184 30.738-19.83 60.859-64.166-10.478 5.2402-54.856 43.919-79.778 40.117-8.607-1.1155 73.825-64.584 103.02-87.458-20.34-1.8126-47.91 26.205-52.396 22.23-6.4223-2.4696 12.571 4.0702 76.504-85.284-78.551 70.961-40.974 27.714-72.772 48.583-11.921 4.7136 26.168-23.252 52.853-48.623 26.685-25.371 23.156-26.443 29.959-39.484-36.089 27.828-21.356 18.391-46.783 39.884s-72.205 52.209-65.991 42.022c-6.5669 2.5935 67.697-47.371 75.751-76.36-39.156 33.05-49.762 32.312-71.347 49.697s-9.3027-9.3201-23.692 2.3269c-10.597-0.97016 41.731-29.904 37.418-34.107 7.5517-16.877 37.394-26.903 41.902-41.045-6.3686 6.161-75.922 50.742-77.53 39.662 20.214-13.044 34.484-50.032 110.43-108.68-1.3408-3.19-17.843 5.8624-40.913 20.83 10.938-14.826 16.467-24.591 12.512-24.751-62.365 66.291-109.54 84.797-122.64 101.85-15.49 1.4596 29.196-57.15 36.121-62.997-18.246 6.4117-24.992 29.443-46.261 38.601-6.7366-2.0142-34.066 41.005-37.852 33.882 12.546-12.684-21.025 2.0271-2.323-16.981s15.222-26.179 51.211-61.01c-37.676 12.321-88.589 75.426-86.577 70.27-12.453 6.6756 18.588-32.917 42.002-55.543s13.948-10.205 43.527-41.696c-16.21 7.7473-18.478 5.561-46.89 29.96s-57.719 57.31-54.058 47.948c21.082-26.899-29.182 9.2052 49.375-61.753-107.05 65.095-93.707 76.732-98.568 72.852-6.4649-2.1873 25.37-27.822 18.171-41.505-24.422 25.558-91.873 97.482-95.395 91.773-10.977-16.398 31.477-56.169 36.191-64.653z" fill="#9c0000" fill-rule="evenodd" stroke="#000" stroke-width=".60155"/>
  <path d="m7.0801 432.67c-50.303 33.525-57.1 45.338-65.863 53.967-4.3815 4.3146-15.398 26.361-21.786 31.784s-8.0858 1.1682-2.5079-15.799c-27.73 23.814-18.454 36.065-38.892 51.611-4.9709-10.511-20.401 6.6784-2.5792-24.141l200.64 172.63s57.687-44.246 78.738-60.249 58.777-31.568 78.648-46.385 21.901-28.885 32.789-36.393c-11.522 2.9932-42.098 25.976-48.763 24.386-3.258-5.3338 66.076-43.771 71.51-57.152-48.498 30.558-26.853 13.428-54.24 23.663 13.223-15.607 48.576-27.476 72.345-51.323-30.856 16.752-41.623 20.887-36.282 15.455s41.723-27.261 46.66-31.571c9.8745-8.6197 28.486-20.326 50.888-54.088-10.046 6.0838-48.95 41.016-76.445 46.445-9.4524 1.9845 64.663-58.245 90.823-79.795-22.156 5.1478-45.441 29.066-51.119 28.214-7.4154 0.57063 14.346-1.5417 62.947-70.563-68.306 63.22-37.689 27.806-67.079 49.03-11.707 6.2281 22.841-20.845 45.766-43.025s18.914-21.708 23.303-31.016c-32.439 26.392-18.77 16.686-41.208 36.33s-65.669 50.875-61.278 43.331c-6.4495 3.4291 61.919-46.821 64.117-65.374-34.564 30.223-46.07 33.022-65.309 49.219s-12.012-2.366-24.824 8.4632c-11.549 2.6677 38.014-29.253 32.47-30.284 4.3412-11.668 34.04-26.272 35.73-35.498-5.4478 5.3523-69.971 51.184-74.143 45.511 18.733-13.369 25.808-38.25 94.054-93.837-2.1401-1.3676-17.786 8.6589-39.147 23.961 8.417-11.552 12.169-18.654 7.9032-17.546-52.029 55.726-98.387 80.289-108.62 93.731-16.244 5.499 18.576-40.606 24.689-45.952-18.095 9.086-20.212 23.931-40.934 35.459-7.6509 0.91888-27.358 33.105-32.984 30.29 10.611-10.848-22.038 7.4896-6.2431-8.737s10.486-19.16 41.268-49.415c-37.569 18.251-78.055 68.74-77.044 65.265-11.842 7.4797 12.595-23.925 32.629-43.588s12.659-9.8943 37.325-36.352c-15.623 9.2125-18.532 8.6832-43.519 30.846s-49.047 49.327-47.205 43.014c16.594-21.333-29.173 13.948 39.14-49.272-100.08 68.582-83.239 71.015-89.297 70.329-7.3985 0.74044 20.976-23.144 10.248-28.573-20.463 21.598-76.685 81.995-81.716 79.887-15.37-5.7938 21.233-40.751 24.397-46.894z" fill="url(#b)" fill-rule="evenodd" stroke="#000" stroke-width=".48928"/>
  <g transform="translate(894.9 665.89)">
   <path transform="matrix(1.0383 0 0 .95922 -1205.4 -425.51)" d="m454.29 413.79a172.86 187.14 0 1 1 -345.71 0 172.86 187.14 0 1 1 345.71 0z" stroke="#000" stroke-linecap="round" stroke-linejoin="round"/>
   <path transform="matrix(1.0383 0 0 .95922 -1205 -424.64)" d="m454.29 413.79a172.86 187.14 0 1 1 -345.71 0 172.86 187.14 0 1 1 345.71 0z" fill="url(#a)" stroke="#000" stroke-linecap="round" stroke-linejoin="round"/>
   <path d="m-868.41-183.19c-41.669 0-75.5 33.824-75.5 75.5s33.831 75.5 75.5 75.5 75.5-33.824 75.5-75.5-33.831-75.5-75.5-75.5zm11.344 21.781c7.9619 0.0352 16.08 3.4856 24.375 10.312 8.3318 6.8578 13.265 14.178 14.812 21.969s-0.433 15.031-5.9375 21.719c-3.9364 4.7825-8.6169 7.7167-14.062 8.8125s-11.071 0.2714-16.875-2.5c4.4094 5.7601 6.6243 11.732 6.625 17.938s-2.1963 11.97-6.5938 17.312c-6.6732 8.1077-14.263 12.303-22.781 12.562s-17.396-3.4043-26.625-11-14.554-15.591-15.938-24 1.2643-16.673 7.9375-24.781c4.3975-5.3429 9.673-8.604 15.781-9.7812s12.406-0.15693 18.906 3.0625c-3.8732-5.1934-5.8094-10.57-5.7812-16.125s2.0324-10.718 5.9688-15.5c5.5045-6.6879 12.225-10.035 20.188-10zm2.5938 13.531c-4.7078 0.19911-8.8391 2.4784-12.406 6.8125s-4.9912 8.8107-4.2812 13.469 3.5116 9.0028 8.4062 13.031c4.8571 3.9978 9.6611 5.9183 14.406 5.75 4.745-0.1683 8.9014-2.4159 12.469-6.75s4.9659-8.8424 4.2188-13.531-3.5492-9.0334-8.4062-13.031c-4.8947-4.0285-9.6986-5.949-14.406-5.75zm-30.844 36.062c-0.34037 0.00262-0.69061 0.01001-1.0312 0.03125-5.4504 0.33992-10.255 3.0498-14.406 8.0938s-5.8708 10.274-5.1562 15.688 3.776 10.322 9.1562 14.75 10.797 6.4682 16.281 6.125 10.285-3.0246 14.406-8.0312c4.1515-5.044 5.8707-10.274 5.1562-15.688s-3.7699-10.353-9.1875-14.812c-5.0441-4.1515-10.113-6.1955-15.219-6.1562z" fill="#fff" stroke="#000" stroke-linecap="round" stroke-linejoin="round" stroke-width=".41974"/>
   <text transform="rotate(39.456)" x="-786.31641" y="522.8631" font-family="Bitstream Vera Sans" font-size="148.66" opacity=".27381">
    <tspan x="-786.31641" y="522.8631">8</tspan>
   </text>
  </g>
 </g>
</svg>
